{"title":"Pulp Fiction(1994)MP-4[DaScubaDude]","uid":12352027,"size":1890465449,"categoryP":"video","categoryS":"movies","magnet":"?xt=urn:btih:650da8fb7595271a6c7e8dd36b824ec9e5b8fe9c&amp;dn=Pulp+Fiction%281994%29MP-4%5BDaScubaDude%5D&amp;tr=udp%3A%2F%2Ftracker.openbittorrent.com%3A80&amp;tr=udp%3A%2F%2Fopen.demonii.com%3A1337&amp;tr=udp%3A%2F%2Ftracker.coppersurfer.tk%3A6969&amp;tr=udp%3A%2F%2Fexodus.desync.com%3A6969","seeders":4,"leechers":0,"uploader":"dascuba","files":1,"time":1441438928,"description":"Pulp Fiction (1994)\nR  |  154 min  |  Crime, Drama  |  14 October 1994 (USA)\n8.9 Your rating:   -/10   Ratings: 8.9/10 from 1,181,296 users   Metascore: 94/100 \nReviews: 2,082 user | 264 critic | 24 from Metacritic.com\nThe lives of two mob hit men, a boxer, a gangster's wife, and a pair of diner bandits intertwine in four tales of violence and redemption.\n\nDirector: Quentin Tarantino\nWriters: Quentin Tarantino (story), Roger Avary (story), 1 more credit Â»\nStars: John Travolta, Uma Thurman, Samuel L. Jackson \nGeneral\nComplete name                            :C:Pulp FictionPULP_FICTION_Title1.mp4\nFormat                                   : MPEG-4\nFormat profile                           : Base Media\nCodec ID                                 : isom\nFile size                                : 1.76 GiB\nDuration                                 : 2h 34mn\nOverall bit rate mode                    : Constant\nOverall bit rate                         : 1 634 Kbps\nMovie name                               : PULP_FICTION\nGenre                                    : Crime\nWriting application                      : Lavf54.6.100\n\nVideo\nID                                       : 1\nFormat                                   : MPEG-4 Visual\nFormat settings, BVOP                    : No\nFormat settings, QPel                    : No\nFormat settings, GMC                     : No warppoints\nFormat settings, Matrix                  : Default (H.263)\nCodec ID                                 : 20\nDuration                                 : 2h 34mn\nBit rate mode                            : Constant\nBit rate                                 : 1 501 Kbps\nWidth                                    : 720 pixels\nHeight                                   : 404 pixels\nDisplay aspect ratio                     : 16:9\nFrame rate mode                          : Constant\nFrame rate                               : 29.970 fps\nColor space                              : YUV\nChroma subsampling                       : 4:2:0\nBit depth                                : 8 bits\nScan type                                : Progressive\nCompression mode                         : Lossy\nBits/(Pixel*Frame)                       : 0.172\nStream size                              : 1.62 GiB (92%)\nWriting library                          : Lavc54.23.100\n\nAudio\nID                                       : 2\nFormat                                   : MPEG Audio\nFormat version                           : Version 1\nFormat profile                           : Layer 3\nCodec ID                                 : 6B\nDuration                                 : 2h 34mn\nBit rate mode                            : Constant\nBit rate                                 : 128 Kbps\nChannel(s)                               : 2 channels\nSampling rate                            : 44.1 KHz\nCompression mode                         : Lossy\nStream size                              : 141 MiB (8%)","torrent":{"xt":"urn:btih:650da8fb7595271a6c7e8dd36b824ec9e5b8fe9c","amp;dn":"Pulp+Fiction%281994%29MP-4%5BDaScubaDude%5D","amp;tr":["udp%3A%2F%2Ftracker.openbittorrent.com%3A80","udp%3A%2F%2Fopen.demonii.com%3A1337","udp%3A%2F%2Ftracker.coppersurfer.tk%3A6969","udp%3A%2F%2Fexodus.desync.com%3A6969"],"infoHash":"650da8fb7595271a6c7e8dd36b824ec9e5b8fe9c","infoHashBuffer":{"type":"Buffer","data":[101,13,168,251,117,149,39,26,108,126,141,211,107,130,78,201,229,184,254,156]},"announce":[],"urlList":[]}}